<?xml version="1.0" encoding="UTF-8"?>
<svg version="1.1" xmlns="http://www.w3.org/2000/svg" width="512" height="512">
<path d="M0 0 C12.25580415 10.92966868 23.71915492 22.49662414 33.31347656 35.84741211 C33.91651611 36.66798096 33.91651611 36.66798096 34.53173828 37.50512695 C51.91416257 61.34048818 63.33806407 89.06468393 69.31347656 117.84741211 C69.4771875 118.59555176 69.64089844 119.34369141 69.80957031 120.11450195 C80.73354281 171.99208624 68.01402769 229.18789718 39.31347656 273.22241211 C31.72164641 284.14612763 23.51409118 294.25326987 14.31347656 303.84741211 C13.80945313 304.37866699 13.30542969 304.90992188 12.78613281 305.45727539 C4.88386514 313.75120782 -3.42899721 321.09953338 -12.68652344 327.84741211 C-13.51579346 328.45915283 -13.51579346 328.45915283 -14.36181641 329.08325195 C-38.19312935 346.45515359 -65.91339807 357.8739932 -94.68652344 363.84741211 C-95.43466309 364.01112305 -96.18280273 364.17483398 -96.95361328 364.34350586 C-121.82908449 369.58158637 -151.89599899 369.42941771 -176.68652344 363.84741211 C-178.04173096 363.54939697 -178.04173096 363.54939697 -179.42431641 363.24536133 C-209.50397964 356.44496329 -238.37327122 344.0188309 -262.68652344 324.84741211 C-263.27900879 324.38044922 -263.87149414 323.91348633 -264.48193359 323.43237305 C-279.54214737 311.3758236 -293.42185844 297.52253324 -304.68652344 281.84741211 C-305.0885498 281.30036621 -305.49057617 280.75332031 -305.90478516 280.18969727 C-323.29067791 256.34957996 -334.69996635 228.6316139 -340.68652344 199.84741211 C-340.93208984 198.73317871 -340.93208984 198.73317871 -341.18261719 197.59643555 C-352.03631623 146.48986506 -339.61679614 90.36512872 -312.21630859 46.4934082 C-298.03010728 24.8230373 -279.73066851 4.97043684 -258.68652344 -10.15258789 C-258.13947754 -10.55461426 -257.59243164 -10.95664063 -257.02880859 -11.37084961 C-233.19344737 -28.7532739 -205.46925162 -40.1771754 -176.68652344 -46.15258789 C-175.56431396 -46.3981543 -175.56431396 -46.3981543 -174.41943359 -46.64868164 C-113.76158038 -59.42153392 -46.42517048 -40.3296827 0 0 Z " fill="#DBF3F8" transform="translate(391.6865234375,97.152587890625)"/>
<path d="M0 0 C12.25580415 10.92966868 23.71915492 22.49662414 33.31347656 35.84741211 C33.91651611 36.66798096 33.91651611 36.66798096 34.53173828 37.50512695 C51.91416257 61.34048818 63.33806407 89.06468393 69.31347656 117.84741211 C69.4771875 118.59555176 69.64089844 119.34369141 69.80957031 120.11450195 C80.73354281 171.99208624 68.01402769 229.18789718 39.31347656 273.22241211 C31.72164641 284.14612763 23.51409118 294.25326987 14.31347656 303.84741211 C13.80945313 304.37866699 13.30542969 304.90992188 12.78613281 305.45727539 C4.88386514 313.75120782 -3.42899721 321.09953338 -12.68652344 327.84741211 C-13.51579346 328.45915283 -13.51579346 328.45915283 -14.36181641 329.08325195 C-38.19312935 346.45515359 -65.91339807 357.8739932 -94.68652344 363.84741211 C-95.43466309 364.01112305 -96.18280273 364.17483398 -96.95361328 364.34350586 C-121.82908449 369.58158637 -151.89599899 369.42941771 -176.68652344 363.84741211 C-178.04173096 363.54939697 -178.04173096 363.54939697 -179.42431641 363.24536133 C-209.50397964 356.44496329 -238.37327122 344.0188309 -262.68652344 324.84741211 C-263.27900879 324.38044922 -263.87149414 323.91348633 -264.48193359 323.43237305 C-279.54214737 311.3758236 -293.42185844 297.52253324 -304.68652344 281.84741211 C-305.0885498 281.30036621 -305.49057617 280.75332031 -305.90478516 280.18969727 C-323.29067791 256.34957996 -334.69996635 228.6316139 -340.68652344 199.84741211 C-340.93208984 198.73317871 -340.93208984 198.73317871 -341.18261719 197.59643555 C-352.03631623 146.48986506 -339.61679614 90.36512872 -312.21630859 46.4934082 C-298.03010728 24.8230373 -279.73066851 4.97043684 -258.68652344 -10.15258789 C-258.13947754 -10.55461426 -257.59243164 -10.95664063 -257.02880859 -11.37084961 C-233.19344737 -28.7532739 -205.46925162 -40.1771754 -176.68652344 -46.15258789 C-175.56431396 -46.3981543 -175.56431396 -46.3981543 -174.41943359 -46.64868164 C-113.76158038 -59.42153392 -46.42517048 -40.3296827 0 0 Z M-168.68652344 9.84741211 C-169.41597168 10.01370117 -170.14541992 10.17999023 -170.89697266 10.35131836 C-204.04687626 18.10568178 -235.04388913 37.72485312 -255.68652344 64.84741211 C-256.35167969 65.6969043 -257.01683594 66.54639648 -257.70214844 67.42163086 C-271.71622937 85.87718233 -280.78909413 107.28780993 -285.68652344 129.84741211 C-285.93273437 130.9547168 -286.17894531 132.06202148 -286.43261719 133.20288086 C-293.18198006 170.67348165 -283.88530796 212.56346001 -262.30566406 243.84936523 C-254.21699907 255.20768873 -245.57242619 266.04126014 -234.68652344 274.84741211 C-233.26919922 276.00370117 -233.26919922 276.00370117 -231.82324219 277.18334961 C-210.16546798 294.52509184 -185.11544366 305.65311078 -157.68652344 309.84741211 C-156.14544922 310.12198242 -156.14544922 310.12198242 -154.57324219 310.40209961 C-114.36356757 315.0090372 -73.4189079 304.04075906 -41.68652344 278.84741211 C-38.9991426 276.55125542 -36.37619844 274.21190085 -33.79199219 271.80053711 C-32.07394883 270.20680487 -30.33787008 268.73282285 -28.49902344 267.28491211 C-2.1972773 244.49006545 12.9642255 206.77240863 16.31347656 172.84741211 C17.26755562 157.04250978 17.00840223 141.28536434 13.31347656 125.84741211 C13.1471875 125.12086426 12.98089844 124.39431641 12.80957031 123.64575195 C5.52770232 92.50228134 -12.57413634 61.93732179 -37.68652344 41.84741211 C-38.55664062 41.15131836 -39.42675781 40.45522461 -40.32324219 39.73803711 C-76.26952251 11.90246623 -123.89404949 -0.70910692 -168.68652344 9.84741211 Z " fill="#7CC4E1" transform="translate(391.6865234375,97.152587890625)"/>
<path d="M0 0 C17.67630248 15.51849298 29.86217249 37.46255732 32.3359375 61.05078125 C33.37304662 79.57449962 32.25662063 97.23660975 20.1484375 112.30078125 C12.72827194 120.23268236 2.07491706 125.15627582 -8.671875 126.3984375 C-20.78384501 126.76211284 -31.77659019 122.4383713 -42.9765625 118.35546875 C-60.51323029 112.1507579 -76.19121014 118.15642194 -92.90942383 124.11108398 C-103.52296248 127.73170884 -113.94344164 126.63172711 -124.0390625 121.94921875 C-134.58691471 116.42585019 -141.73272488 108.89720157 -145.95703125 97.58984375 C-146.94211673 94.42476766 -147.84465238 91.26234027 -148.6640625 88.05078125 C-148.8405835 87.4254248 -149.01710449 86.80006836 -149.19897461 86.15576172 C-153.98082291 64.51319162 -146.59878159 39.62918748 -135.6640625 21.05078125 C-121.63438785 -0.10431827 -102.39597769 -13.24830271 -77.6640625 -18.94921875 C-50.33658788 -23.21825898 -21.55921938 -18.05669636 0 0 Z " fill="#7CC5E1" transform="translate(314.6640625,238.94921875)"/>
<path d="M0 0 C12.25580415 10.92966868 23.71915492 22.49662414 33.31347656 35.84741211 C33.91651611 36.66798096 33.91651611 36.66798096 34.53173828 37.50512695 C51.91416257 61.34048818 63.33806407 89.06468393 69.31347656 117.84741211 C69.4771875 118.59555176 69.64089844 119.34369141 69.80957031 120.11450195 C80.73354281 171.99208624 68.01402769 229.18789718 39.31347656 273.22241211 C31.72164641 284.14612763 23.51409118 294.25326987 14.31347656 303.84741211 C13.80945313 304.37866699 13.30542969 304.90992188 12.78613281 305.45727539 C4.88386514 313.75120782 -3.42899721 321.09953338 -12.68652344 327.84741211 C-13.51579346 328.45915283 -13.51579346 328.45915283 -14.36181641 329.08325195 C-38.19312935 346.45515359 -65.91339807 357.8739932 -94.68652344 363.84741211 C-95.43466309 364.01112305 -96.18280273 364.17483398 -96.95361328 364.34350586 C-121.82908449 369.58158637 -151.89599899 369.42941771 -176.68652344 363.84741211 C-178.04173096 363.54939697 -178.04173096 363.54939697 -179.42431641 363.24536133 C-209.50397964 356.44496329 -238.37327122 344.0188309 -262.68652344 324.84741211 C-263.27900879 324.38044922 -263.87149414 323.91348633 -264.48193359 323.43237305 C-279.54214737 311.3758236 -293.42185844 297.52253324 -304.68652344 281.84741211 C-305.0885498 281.30036621 -305.49057617 280.75332031 -305.90478516 280.18969727 C-323.29067791 256.34957996 -334.69996635 228.6316139 -340.68652344 199.84741211 C-340.93208984 198.73317871 -340.93208984 198.73317871 -341.18261719 197.59643555 C-352.03631623 146.48986506 -339.61679614 90.36512872 -312.21630859 46.4934082 C-298.03010728 24.8230373 -279.73066851 4.97043684 -258.68652344 -10.15258789 C-258.13947754 -10.55461426 -257.59243164 -10.95664063 -257.02880859 -11.37084961 C-233.19344737 -28.7532739 -205.46925162 -40.1771754 -176.68652344 -46.15258789 C-175.56431396 -46.3981543 -175.56431396 -46.3981543 -174.41943359 -46.64868164 C-113.76158038 -59.42153392 -46.42517048 -40.3296827 0 0 Z M-170.68652344 -30.15258789 C-171.54052734 -29.98098145 -172.39453125 -29.809375 -173.27441406 -29.63256836 C-224.23044221 -19.11231089 -267.76620769 10.67400519 -296.68652344 53.84741211 C-325.02895882 97.08301711 -333.74953946 148.91116808 -323.62011719 199.35913086 C-314.31850535 242.46473762 -290.17084071 281.40439523 -255.68652344 308.84741211 C-254.74292969 309.63116211 -253.79933594 310.41491211 -252.82714844 311.22241211 C-228.35974476 330.99917363 -197.54394355 343.45450651 -166.68652344 348.84741211 C-164.95402344 349.15485352 -164.95402344 349.15485352 -163.18652344 349.46850586 C-144.62882678 352.27149129 -125.19946143 351.81179424 -106.68652344 348.84741211 C-105.54086914 348.67000488 -105.54086914 348.67000488 -104.37207031 348.48901367 C-57.63041893 340.97901 -15.11248797 315.82345965 14.31347656 278.84741211 C15.48910156 277.43202148 15.48910156 277.43202148 16.68847656 275.98803711 C48.06630163 237.16803558 60.52435493 184.72243868 55.4362793 135.60009766 C49.5137778 87.52637435 24.36151895 40.60405451 -13.59277344 10.26147461 C-15.12417969 9.06651367 -15.12417969 9.06651367 -16.68652344 7.84741211 C-17.23695313 7.41525391 -17.78738281 6.9830957 -18.35449219 6.5378418 C-60.62179351 -26.39740929 -117.97861348 -40.89753771 -170.68652344 -30.15258789 Z " fill="#342EAA" transform="translate(391.6865234375,97.152587890625)"/>
<path d="M0 0 C0.81339844 0.21398437 1.62679687 0.42796875 2.46484375 0.6484375 C20.25437729 5.50831007 38.27486992 13.8874915 53 25 C54.05316406 25.76054688 55.10632813 26.52109375 56.19140625 27.3046875 C77.30188885 42.9012154 94.05130586 62.71506328 106 86 C106.31275879 86.60102539 106.62551758 87.20205078 106.94775391 87.82128906 C125.76784959 124.41759245 129.64314363 167.34570679 119 207 C118.78601563 207.81339844 118.57203125 208.62679687 118.3515625 209.46484375 C113.49168993 227.25437729 105.1125085 245.27486992 94 260 C93.23945313 261.05316406 92.47890625 262.10632813 91.6953125 263.19140625 C76.09531738 284.30658188 56.2830022 301.04204722 33 313 C31.99332275 313.5256958 31.99332275 313.5256958 30.96630859 314.06201172 C19.72227441 319.87567326 8.26119529 323.89973579 -4 327 C-4.80373047 327.21172852 -5.60746094 327.42345703 -6.43554688 327.64160156 C-32.51351068 334.27141428 -62.2197435 333.1796784 -88 326 C-89.19665283 325.67902344 -89.19665283 325.67902344 -90.41748047 325.3515625 C-110.13757633 319.91962961 -128.76815272 310.3652874 -145 298 C-145.93199219 297.3090625 -146.86398438 296.618125 -147.82421875 295.90625 C-167.30898005 280.76114405 -182.78783092 261.90169043 -194 240 C-194.47711426 239.07453369 -194.47711426 239.07453369 -194.96386719 238.13037109 C-205.25080657 217.9058398 -211.9826909 194.89712244 -212.23828125 172.1171875 C-212.24816574 171.38905853 -212.25805023 170.66092957 -212.26823425 169.91073608 C-212.67243569 132.38259041 -204.73888924 96.77188001 -182 66 C-181.23816406 64.94296875 -180.47632813 63.8859375 -179.69140625 62.796875 C-164.08643925 41.71006947 -144.29153428 24.92367417 -121 13 C-120.07453369 12.52288574 -120.07453369 12.52288574 -119.13037109 12.03613281 C-109.12716679 6.94813572 -98.80437104 3.02480953 -88 0 C-87.12746582 -0.24556641 -86.25493164 -0.49113281 -85.35595703 -0.74414062 C-57.80260502 -8.13852576 -27.45547076 -7.36900081 0 0 Z M-77 14 C-77.72944824 14.16628906 -78.45889648 14.33257812 -79.21044922 14.50390625 C-112.36035282 22.25826967 -143.35736569 41.87744101 -164 69 C-164.66515625 69.84949219 -165.3303125 70.69898438 -166.015625 71.57421875 C-180.02970593 90.02977022 -189.10257069 111.44039782 -194 134 C-194.24621094 135.10730469 -194.49242187 136.21460938 -194.74609375 137.35546875 C-201.49545662 174.82606954 -192.19878452 216.7160479 -170.61914062 248.00195312 C-162.53047564 259.36027662 -153.88590275 270.19384803 -143 279 C-141.58267578 280.15628906 -141.58267578 280.15628906 -140.13671875 281.3359375 C-118.47894454 298.67767973 -93.42892022 309.80569867 -66 314 C-64.45892578 314.27457031 -64.45892578 314.27457031 -62.88671875 314.5546875 C-22.67704413 319.16162509 18.26761554 308.19334695 50 283 C52.68738084 280.70384331 55.310325 278.36448875 57.89453125 275.953125 C59.61257461 274.35939276 61.34865335 272.88541074 63.1875 271.4375 C89.48924614 248.64265334 104.65074894 210.92499652 108 177 C108.95407905 161.19509767 108.69492567 145.43795223 105 130 C104.83371094 129.27345215 104.66742188 128.5469043 104.49609375 127.79833984 C97.21422576 96.65486923 79.1123871 66.08990968 54 46 C53.12988281 45.30390625 52.25976562 44.6078125 51.36328125 43.890625 C15.41700093 16.05505412 -32.20752606 3.44348097 -77 14 Z " fill="#3530AA" transform="translate(300,93)"/>
<path d="M0 0 C17.67630248 15.51849298 29.86217249 37.46255732 32.3359375 61.05078125 C33.37304662 79.57449962 32.25662063 97.23660975 20.1484375 112.30078125 C12.72827194 120.23268236 2.07491706 125.15627582 -8.671875 126.3984375 C-20.78384501 126.76211284 -31.77659019 122.4383713 -42.9765625 118.35546875 C-60.51323029 112.1507579 -76.19121014 118.15642194 -92.90942383 124.11108398 C-103.52296248 127.73170884 -113.94344164 126.63172711 -124.0390625 121.94921875 C-134.58691471 116.42585019 -141.73272488 108.89720157 -145.95703125 97.58984375 C-146.94211673 94.42476766 -147.84465238 91.26234027 -148.6640625 88.05078125 C-148.8405835 87.4254248 -149.01710449 86.80006836 -149.19897461 86.15576172 C-153.98082291 64.51319162 -146.59878159 39.62918748 -135.6640625 21.05078125 C-121.63438785 -0.10431827 -102.39597769 -13.24830271 -77.6640625 -18.94921875 C-50.33658788 -23.21825898 -21.55921938 -18.05669636 0 0 Z M-113.765625 18.7109375 C-127.62723784 35.79551793 -135.93403368 56.85434255 -133.6640625 79.05078125 C-132.23488654 88.93535054 -129.93217573 98.34077586 -121.60546875 104.59765625 C-114.14474435 109.47108356 -107.47965682 109.75290823 -98.6640625 109.05078125 C-93.71564758 107.92521018 -89.00095065 106.32230992 -84.2265625 104.61328125 C-81.81292193 103.77626198 -79.39760195 102.94406667 -76.98046875 102.1171875 C-75.40954468 101.55946655 -75.40954468 101.55946655 -73.80688477 100.99047852 C-58.96918556 96.55403757 -44.23031566 100.05349339 -30.17041016 105.48071289 C-20.67763379 109.13320268 -11.78333293 111.26214048 -1.68359375 108.125 C6.10945207 104.59107819 10.30182652 99.17987899 13.48828125 91.375 C19.73739671 74.24032856 16.57763795 55.23878766 9.30419922 38.95874023 C1.11533175 21.64748284 -12.14657044 7.38747247 -30.38647461 0.74755859 C-59.3419223 -8.90549583 -92.28910012 -4.17017023 -113.765625 18.7109375 Z " fill="#3530AA" transform="translate(314.6640625,238.94921875)"/>
<path d="M0 0 C8.10238003 5.77856167 13.46962453 13.23699859 16.60546875 22.64453125 C17.44078738 35.35232939 17.00073975 45.79302655 8.48046875 55.95703125 C0.51384222 64.19882087 -8.15884587 68.58661967 -19.64453125 69.01953125 C-30.36646095 68.8105028 -38.66627166 65.01052867 -46.39453125 57.64453125 C-53.57150573 50.08307599 -56.58165692 41.42774245 -56.89453125 31.08203125 C-56.55771301 20.35817312 -52.85784205 12.34430338 -45.39453125 4.64453125 C-32.02221283 -6.7055084 -15.39918566 -8.71699417 0 0 Z " fill="#3530AA" transform="translate(318.39453125,152.35546875)"/>
<path d="M0 0 C6.31364395 5.63668869 11.60317123 14.69160204 12.23828125 23.1875 C12.46371798 34.76782903 10.67679936 43.8619063 3.0390625 52.9296875 C-5.03685889 61.1293778 -14.0566546 64.91660803 -25.5 65.4375 C-37.07287176 65.05779094 -45.92088484 59.423596 -53.75 51.3125 C-61.5761825 41.78497348 -62.13945761 30.80152523 -61 19 C-60.15331818 15.57997626 -58.93299355 12.93240507 -57 10 C-56.55269531 9.30648437 -56.10539063 8.61296875 -55.64453125 7.8984375 C-49.65508053 -0.67627211 -42.53728356 -5.68083583 -32.5625 -8.75 C-20.15279776 -9.96070266 -10.14161388 -7.45241644 0 0 Z " fill="#3530AA" transform="translate(238,156)"/>
<path d="M0 0 C9.00989025 5.35851367 14.68434284 13.01707664 17.59375 23.046875 C19.42086893 31.83110064 16.93511647 40.2555673 12.3125 47.75 C7.1164869 55.02956291 0.12899482 59.22581729 -8.375 61.6875 C-17.83743083 62.81397986 -25.7523262 61.6651605 -33.74609375 56.08203125 C-40.52026399 50.39494925 -44.22636291 44.32091126 -47 36 C-47.81005704 26.53162841 -47.05971032 18.55083615 -41.3515625 10.74609375 C-30.4631284 -2.16311961 -15.95304835 -7.07552144 0 0 Z " fill="#3530AB" transform="translate(378,210)"/>
<path d="M0 0 C7.99837726 4.80349472 13.59760763 11.60313331 16.37109375 20.52734375 C18.09458218 29.23965682 17.40764755 38.02803011 12.796875 45.6796875 C6.10989318 54.75769228 -1.07052806 59.88622395 -12.203125 61.6796875 C-21.49697201 62.59383639 -30.21408674 59.32684686 -37.421875 53.43359375 C-44.16952666 46.78952446 -48.12013107 38.16397851 -48.578125 28.6796875 C-48.07257481 18.23165022 -43.41326252 10.46755309 -35.953125 3.4296875 C-25.2920619 -5.08985201 -12.18394029 -5.70517839 0 0 Z " fill="#3530AB" transform="translate(164.203125,210.3203125)"/>
<path d="M0 0 C5.36847788 2.84422669 9.45952886 7.73593036 11.76953125 13.3125 C12.7104415 20.35838609 12.08815638 26.54170561 7.76953125 32.3125 C3.10874628 37.27148686 -1.13125869 40.00257899 -7.98046875 40.6875 C-13.70670879 40.50382815 -18.79534029 38.5035964 -23.0625 34.6640625 C-28.05268766 29.10322078 -29.720765 24.3424425 -29.54296875 16.875 C-28.86467137 11.31296151 -26.43319647 7.09621982 -22.23046875 3.4375 C-15.49505232 -1.33341997 -8.09108969 -2.49392607 0 0 Z " fill="#7CC4E1" transform="translate(307.23046875,164.6875)"/>
<path d="M0 0 C5.38177863 3.13851335 9.37572323 7.62716968 11.35546875 13.56640625 C11.41734375 14.41203125 11.47921875 15.25765625 11.54296875 16.12890625 C11.69765625 18.01609375 11.69765625 18.01609375 11.85546875 19.94140625 C11.75075276 25.50182508 9.64358579 29.77871095 5.96484375 33.89453125 C1.16295207 38.35034064 -3.38583525 39.79386669 -9.89453125 40.50390625 C-17.084127 39.7471067 -21.68162527 36.48421345 -26.23046875 31.0078125 C-29.91142274 25.36915369 -30.349815 19.69132698 -29.45703125 13.12890625 C-27.22556372 7.44967774 -23.33946405 3.63152108 -18.45703125 0.12890625 C-12.71074195 -1.78652352 -5.74678427 -2.03741318 0 0 Z " fill="#7CC4E1" transform="translate(222.45703125,164.87109375)"/>
<path d="M0 0 C4.16182893 2.46064338 7.2247422 5.46230833 9 10 C9.6773018 15.21364875 9.63590295 19.65482068 7.375 24.4375 C3.04565669 29.10863357 -0.07876026 31.23861982 -6.5 31.5 C-12.75412913 31.25390808 -15.78511742 29.03529751 -20.3125 24.875 C-22.77796502 20.67457811 -23.3020606 16.84033691 -23 12 C-21.70356878 7.28936481 -19.75508237 4.60098393 -15.9375 1.5625 C-10.41937796 -1.3726713 -6.01349383 -1.4942621 0 0 Z " fill="#7CC4E1" transform="translate(370,224)"/>
<path d="M0 0 C4.0418077 3.75310715 6.34088269 7.36036504 6.85546875 12.93359375 C6.62383487 18.57001806 5.1273425 21.9619872 1.29296875 26.0625 C-3.14253427 29.7189334 -7.07918099 29.8694016 -12.68359375 29.75 C-17.83005384 29.15244295 -20.35698993 26.53587929 -23.75 22.875 C-26.05081945 18.00788192 -26.15613802 13.73187994 -25.375 8.4375 C-23.18973658 3.98603749 -20.4355479 1.24864855 -16.375 -1.5625 C-10.82599121 -3.4121696 -5.23897863 -2.42545307 0 0 Z " fill="#7CC4E1" transform="translate(158.375,225.5625)"/>
</svg>
